HIERARCHY
ROOT Hips
{
	OFFSET 0.000000 0.000000 0.000000 
	CHANNELS 6 Xposition Yposition Zposition Yrotation Zrotation Xrotation 
	JOINT Lumbar
	{
		OFFSET 0.000000 0.000000 0.000000 
		CHANNELS 3 Zrotation Xrotation Yrotation
		JOINT Neck
		{
			OFFSET 0.000000 0.445665 0.000000 
			CHANNELS 3 Zrotation Xrotation Yrotation
			End Site
			{
				OFFSET 0.000000 0.227535 0.000000 
			}
		}
		JOINT RightShoulder
		{
			OFFSET 0.019635 0.377685 0.194865 
			CHANNELS 3 Zrotation Xrotation Yrotation
			JOINT RightElbow
			{
				OFFSET 0.000000 -0.243375 0.000000 
				CHANNELS 2 Zrotation Yrotation
				JOINT RightWrist
				{
					OFFSET 0.000000 -0.264825 0.000000 
					CHANNELS 2 Zrotation Xrotation
					End Site
					{
						OFFSET 0.006600 -0.176220 0.000990 
					}
				}
			}
		}
		JOINT LeftShoulder
		{
			OFFSET 0.019635 0.377685 -0.194865 
			CHANNELS 3 Zrotation Xrotation Yrotation
			JOINT LeftElbow
			{
				OFFSET 0.000000 -0.243375 0.000000 
				CHANNELS 2 Zrotation Yrotation
				JOINT LeftWrist
				{
					OFFSET 0.000000 -0.264825 0.000000 
					CHANNELS 2 Zrotation Xrotation
					End Site
					{
						OFFSET 0.006600 -0.176220 -0.000990 
					}
				}
			}
		}
	}
	JOINT RightHip
	{
		OFFSET 0.052140 -0.069960 0.075570 
		CHANNELS 3 Zrotation Xrotation Yrotation
		JOINT RightKnee
		{
			OFFSET 0.000000 -0.402270 0.000000 
			CHANNELS 1 Zrotation
			JOINT RightAnkle
			{
				OFFSET 0.000000 -0.404085 0.000000 
				CHANNELS 3 Zrotation Xrotation Yrotation
				End Site
				{
					OFFSET 0.204105 -0.089430 0.008415 
				}
			}
		}
	}
	JOINT LeftHip
	{
		OFFSET 0.052140 -0.069960 -0.075570 
		CHANNELS 3 Zrotation Xrotation Yrotation
		JOINT LeftKnee
		{
			OFFSET 0.000000 -0.402270 0.000000 
			CHANNELS 1 Zrotation
			JOINT LeftAnkle
			{
				OFFSET 0.000000 -0.404085 0.000000 
				CHANNELS 3 Zrotation Xrotation Yrotation
				End Site
				{
					OFFSET 0.204105 -0.089430 -0.008415 
				}
			}
		}
	}
}
MOTION
Frames: 24
Frame Time: 0.02
-0.00818 -0.02428 0.1057 18.26963 -17.16557 -9.32852 52.32539 5.84955 -7.28627 -24.64962 1.35785 -0.8304 22.94581 -108.10357 15.49625 127.22937 70.4983 34.5231 -6.29424 49.04049 122.86947 -47.13223 126.7135 -80.79427 32.01466 3.71452 27.10057 11.80576 -27.5008 -17.97266 -6.83767 -1.31351 -1.32283 42.85977 -4.1793 17.62829 -31.85653 -8.46747 3.93569 2.79934
-0.00498 -0.02354 0.10712 17.90685 -17.33014 -9.0642 52.43727 5.69307 -6.69241 -24.50507 1.17426 -0.8304 21.17831 -108.4332 13.75486 127.07115 70.28244 34.49768 -6.47271 50.39351 122.5503 -48.80692 126.90787 -81.41454 32.00487 3.64926 27.03546 11.78783 -27.33151 -17.83425 -7.2299 -1.3766 -1.36076 42.92432 -4.18035 17.65969 -31.83351 -8.4545 3.97487 2.82134
-0.00196 -0.02257 0.10857 17.4401 -17.46783 -8.69252 52.50064 5.55493 -5.93517 -24.34719 0.99126 -0.8304 19.0389 -108.83638 11.59482 126.84258 70.03368 34.47194 -6.65152 51.94413 122.30151 -50.77316 127.13551 -82.12063 31.9991 3.56888 26.95486 11.71242 -26.8811 -17.67205 -7.07233 -1.32441 -1.31916 43.1026 -4.17579 17.76022 -31.99653 -8.48994 4.01342 2.84404
0.00114 -0.02171 0.10999 17.02956 -17.61733 -8.37058 52.5846 5.40912 -5.2636 -24.1956 0.80516 -0.8304 17.08094 -109.22538 9.62635 126.63591 69.76999 34.43346 -6.81665 53.33068 122.03655 -52.59395 127.34301 -82.7804 31.92386 3.48344 26.88134 11.66233 -26.55379 -17.52183 -7.18523 -1.33086 -1.31799 43.22119 -4.17804 17.8342 -32.06544 -8.50175 4.05152 2.866
0.00429 -0.02082 0.11147 16.57893 -17.7688 -8.04215 52.67673 5.26022 -4.54022 -24.04381 0.63125 -0.8304 15.06175 -109.53455 7.64589 126.47204 69.62542 34.44732 -7.03797 55.04863 121.7053 -54.48361 127.57671 -83.48019 32.13697 3.44133 26.80693 11.61408 -26.24134 -17.36592 -7.25141 -1.32077 -1.30515 43.37338 -4.16438 17.89237 -32.17289 -8.52045 4.09342 2.89022
0.00727 -0.01996 0.11283 16.18906 -17.90988 -7.70321 52.73925 5.12241 -3.88825 -23.88859 0.43166 -0.8304 13.08977 -110.02598 5.59745 126.20091 69.2329 34.35335 -7.14396 56.10547 121.52743 -56.28878 127.75903 -84.10351 31.74713 3.31448 26.73151 11.54906 -25.83456 -17.21677 -7.26887 -1.31402 -1.29528 43.48333 -4.18168 17.99728 -32.24564 -8.53624 4.12693 2.90968
0.00988 -0.01925 0.11383 15.97916 -18.02627 -7.35513 52.73545 5.00856 -3.46206 -23.73178 0.16535 -0.8304 11.28119 -111.0141 3.41471 125.66614 68.09837 33.95466 -6.91543 55.41932 121.76636 -57.84547 127.82424 -84.62218 29.71786 2.87412 26.65051 11.45041 -25.21692 -17.08878 -7.28571 -1.34391 -1.31294 43.44062 -4.28629 18.22447 -32.16865 -8.53271 4.13807 2.91624
0.01233 -0.0186 0.1147 15.83672 -18.13353 -7.00163 52.70258 4.9057 -3.11585 -23.57113 -0.12747 -0.83041 9.54389 -112.1807 1.18768 125.02283 66.72765 33.4481 -6.57367 54.03364 122.15206 -59.29294 127.82911 -85.04052 27.07629 2.36155 26.57027 11.33735 -24.51799 -16.96908 -7.26679 -1.37984 -1.33543 43.35291 -4.42179 18.49414 -32.05211 -8.5245 4.14055 2.9178
0.01484 -0.01793 0.11564 15.67205 -18.24661 -6.65511 52.68046 4.79924 -2.74085 -23.40905 -0.41118 -0.83041 7.81291 -113.25835 -0.987 124.41971 65.5083 32.9969 -6.29418 52.88441 122.46807 -60.75543 127.84115 -85.41762 24.69811 1.94032 26.49404 11.23202 -23.86939 -16.84788 -7.259 -1.41214 -1.35488 43.29108 -4.54267 18.73683 -31.95929 -8.51809 4.14656 2.92132
0.01741 -0.0172 0.11657 15.46768 -18.35177 -6.28583 52.66717 4.68745 -2.32822 -23.25961 -0.68311 -0.83041 5.90693 -114.3726 -3.31343 123.85396 64.10253 32.52259 -5.96922 52.09506 122.81283 -62.38434 127.94435 -86.15172 22.38439 1.28363 26.39891 11.11964 -23.15471 -16.71639 -7.25469 -1.44444 -1.37526 43.21032 -4.66622 19.01332 -31.84844 -8.51476 4.15444 2.92628
0.0198 -0.01662 0.11748 15.36398 -18.4715 -5.96398 52.62908 4.58921 -2.01508 -23.08347 -0.98507 -0.83041 4.38538 -115.45085 -5.32751 123.18393 63.02856 32.06621 -5.71188 50.37614 123.11445 -63.62436 127.83732 -86.13307 19.78901 1.08521 26.34351 11.01933 -22.56167 -16.60845 -7.24128 -1.47949 -1.39582 43.1568 -4.79116 19.22994 -31.76363 -8.50325 4.15614 2.92693
0.02172 -0.01646 0.11835 15.51702 -18.63494 -5.77593 52.53106 4.52507 -1.95863 -22.83129 -1.37045 -0.83041 3.92494 -116.39581 -6.47858 122.26574 62.93621 31.72591 -5.67048 46.35422 123.39332 -63.90575 127.21043 -83.93208 16.59784 2.30264 26.39792 10.95578 -22.3292 -16.56494 -7.21555 -1.52209 -1.41635 43.18915 -4.91614 19.25814 -31.75682 -8.47014 4.14491 2.91803
0.02345 -0.01645 0.1192 15.77027 -18.81335 -5.6361 52.40908 4.47432 -2.0003 -22.5529 -1.7838 -0.83041 3.84671 -117.2961 -7.31063 121.24389 63.18472 31.40056 -5.70075 41.40192 123.5885 -63.77036 126.36437 -81.00595 13.14944 3.96054 26.49236 10.90522 -22.22245 -16.54471 -7.18378 -1.56752 -1.43714 43.24994 -5.04084 19.22635 -31.77709 -8.42874 4.12742 2.90478
0.02526 -0.01637 0.12006 15.98153 -18.98416 -5.4737 52.29732 4.41757 -1.99664 -22.28892 -2.17984 -0.83041 3.58545 -118.21019 -8.27873 120.26158 63.27231 31.04118 -5.69718 36.81465 123.74781 -63.78043 125.58959 -78.48862 9.7836 5.32789 26.56827 10.84903 -22.05648 -16.51298 -7.15475 -1.61126 -1.45777 43.2974 -5.16315 19.23033 -31.7867 -8.39099 4.11138 2.89272
0.0271 -0.0163 0.12091 16.18086 -19.1577 -5.31369 52.18724 4.36034 -1.99797 -22.01486 -2.59641 -0.83041 3.36966 -119.15838 -9.28271 119.30872 63.37687 30.79027 -5.69496 32.44993 124.26599 -64.01824 124.93618 -75.61098 6.49575 7.06811 26.6454 10.79102 -21.89645 -16.48531 -7.12415 -1.65685 -1.47871 43.34515 -5.29691 19.20105 -31.7891 -8.35361 4.10072 2.88367
0.02883 -0.01625 0.12179 16.42699 -19.32959 -5.16042 52.06846 4.3078 -2.01221 -21.75485 -2.97628 -0.83041 3.14424 -120.02211 -10.14012 118.26965 63.5303 30.32185 -5.70847 27.40622 123.96259 -63.62665 123.97387 -73.34086 3.04957 8.14494 26.7298 10.74025 -21.75481 -16.45475 -7.09593 -1.69919 -1.499 43.39955 -5.40669 19.2248 -31.8122 -8.31353 4.07774 2.86755
0.0303 -0.01618 0.12276 16.78553 -19.49049 -5.01252 51.93096 4.25961 -2.02921 -21.54657 -3.24957 -0.83041 2.83947 -120.66655 -10.63131 117.03264 63.73148 29.22102 -5.74871 20.75933 121.87531 -62.11401 122.25259 -72.67839 -1.27076 7.21596 26.82176 10.70493 -21.63604 -16.40918 -7.07635 -1.73192 -1.51769 43.46643 -5.44714 19.42203 -31.89619 -8.2681 4.02011 2.83165
0.03168 -0.01612 0.12378 17.18547 -19.64988 -4.87002 51.78582 4.21677 -2.05703 -21.35206 -3.48445 -0.83041 2.50341 -121.22602 -10.99351 115.71017 63.96951 27.90749 -5.80304 13.4645 118.88951 -59.90359 120.2202 -72.69276 -5.65422 5.61676 26.92023 10.67673 -21.53166 -16.36005 -7.05936 -1.76111 -1.53559 43.53925 -5.4638 19.67237 -31.99834 -8.22026 3.95077 2.78907
0.03311 -0.01606 0.12477 17.5617 -19.81167 -4.72606 51.64469 4.17479 -2.08538 -21.14707 -3.73579 -0.83042 2.15524 -121.82157 -11.43989 114.41778 64.19744 26.70915 -5.85059 6.43074 115.99356 -57.65395 118.30475 -72.56793 -9.6663 4.36832 27.0174 10.64631 -21.41889 -16.31342 -7.04116 -1.79204 -1.55378 43.60855 -5.49347 19.88979 -32.08551 -8.17348 3.88824 2.75042
0.03451 -0.01601 0.12577 17.96413 -19.96628 -4.57967 51.50035 4.11885 -2.09437 -20.95926 -3.99257 -0.83042 1.93361 -122.42654 -11.76561 113.15899 64.41911 25.42925 -5.90092 -0.52782 114.38666 -56.82467 116.48712 -71.73257 -15.09716 2.94071 27.10868 10.61225 -21.31698 -16.26405 -7.02335 -1.82309 -1.57259 43.68132 -5.51437 20.1414 -32.20188 -8.12652 3.81917 2.7078
0.03594 -0.01594 0.12678 18.31803 -20.13588 -4.43887 51.3613 4.09374 -2.14477 -20.73894 -4.22819 -0.83042 1.4335 -122.99206 -12.31823 111.81089 64.64557 24.27328 -5.94944 -7.74348 109.94869 -52.96379 114.39187 -72.51501 -17.63134 1.72082 27.21361 10.58707 -21.19587 -16.21902 -7.00482 -1.85231 -1.58954 43.7491 -5.54723 20.33625 -32.26156 -8.07954 3.7611 2.67199
0.0375 -0.01586 0.12779 18.54773 -20.34188 -4.31299 51.23756 4.14658 -2.308 -20.42869 -4.41738 -0.83042 0.19057 -123.47142 -13.51344 110.24065 64.98632 23.47048 -5.97591 -15.86123 97.34059 -40.15004 111.6323 -77.88395 -11.74103 1.24145 27.35111 10.5867 -21.00329 -16.18847 -6.9859 -1.8823 -1.60408 43.7914 -5.6247 20.35208 -32.15878 -8.03264 3.73558 2.65613
0.0391 -0.01576 0.1288 18.72257 -20.56372 -4.19209 51.11944 4.23124 -2.51179 -20.08491 -4.58589 -0.83042 -1.33722 -123.91407 -14.94631 108.5832 65.31093 22.80678 -6.00224 -24.14733 82.01946 -24.44802 108.60103 -84.80987 -3.00593 0.99153 27.50232 10.59463 -20.79267 -16.16188 -6.96363 -1.90903 -1.61583 43.83018 -5.71398 20.31075 -31.99859 -7.98599 3.72177 2.64752
0.04066 -0.01567 0.12982 18.90936 -20.78201 -4.06818 51.00005 4.30515 -2.69577 -19.75434 -4.76212 -0.83042 -2.7483 -124.37216 -16.28164 106.96407 65.56579 22.10703 -6.03722 -32.11875 68.31897 -10.56881 105.67721 -90.8377 4.15563 0.63236 27.6497 10.59731 -20.60001 -16.13249 -6.94425 -1.93478 -1.62777 43.8772 -5.79406 20.3023 -31.86533 -7.93951 3.70301 2.63591
